<svg width="29" height="32" viewBox="0 0 29 32" fill="none" xmlns="http://www.w3.org/2000/svg">
<path d="M18.9929 4.75H27.9929M18.9929 4.75C18.9929 3.7 21.9839 1.738 22.7429 1M18.9929 4.75C18.9929 5.8 21.9839 7.762 22.7429 8.5M5.2994 17.0065L8.5004 19.75V5.125C8.5004 4.42881 8.77696 3.76113 9.26924 3.26884C9.76152 2.77656 10.4292 2.5 11.1254 2.5C11.8216 2.5 12.4893 2.77656 12.9816 3.26884C13.4738 3.76113 13.7504 4.42881 13.7504 5.125V13L18.2324 13.717C21.1259 14.1505 22.5719 14.368 23.5904 14.977C25.2734 15.9865 26.4929 17.5 26.4929 19.711C26.4929 21.25 26.1119 22.2835 25.1879 25.0585C24.5999 26.8195 24.3074 27.6985 23.8289 28.396C23.041 29.5435 21.8786 30.3813 20.5409 30.766C19.7279 31 18.8009 31 16.9439 31H15.3689C12.9029 31 11.6684 31 10.5689 30.547C10.3722 30.4658 10.1799 30.3742 9.9929 30.2725C8.9489 29.7055 8.1704 28.7485 6.6149 26.833L1.5764 20.632C1.16927 20.1259 0.96546 19.4862 1.00479 18.8379C1.04413 18.1896 1.32378 17.5793 1.7891 17.1261C2.25443 16.673 2.87199 16.4096 3.52112 16.3875C4.17025 16.3654 4.80431 16.5861 5.2994 17.0065Z" stroke="#0047AB" stroke-width="2" stroke-linecap="round" stroke-linejoin="round"/>
</svg>
