<svg width="143" height="35" viewBox="0 0 143 35" fill="none" xmlns="http://www.w3.org/2000/svg">
<path d="M125.543 1.40925C125.309 0.857544 124.866 0.41378 124.314 0.179904C124.176 0.119936 124.032 0.0779586 123.882 0.0479745C123.732 0.0179904 123.576 0 123.414 0C122.137 0 121.106 1.03145 121.106 2.30877V7.79586C121.106 9.07318 122.137 10.1046 123.414 10.1046C124.692 10.1046 125.723 9.07318 125.723 7.79586V2.30877C125.723 1.99094 125.657 1.6851 125.543 1.40925Z" fill="#0047AB"/>
<path d="M11.9517 34.3737L24.6709 34.3797V29.7441H11.9517V34.3737Z" fill="#0047AB"/>
<path d="M38.9013 9.70291C36.7604 9.70291 34.9494 10.5425 33.4622 12.2276V3.11841H28.8446V28.0112H33.3302V25.7864C34.7934 27.5554 36.6465 28.4369 38.8953 28.4369C41.4259 28.4369 43.5428 27.5554 45.2519 25.7864C46.955 23.9993 47.8065 21.7685 47.8065 19.1059C47.8065 16.4433 46.955 14.2125 45.2519 12.4255C43.5488 10.6144 41.4319 9.70891 38.8953 9.70891L38.9013 9.70291ZM41.7198 22.74C40.8022 23.7235 39.6209 24.2152 38.1816 24.2152C36.7424 24.2152 35.561 23.7235 34.6435 22.74C33.726 21.7145 33.2703 20.4912 33.2703 19.0699C33.2703 17.6487 33.726 16.4493 34.6435 15.4658C35.561 14.4644 36.7424 13.9606 38.1816 13.9606C39.6209 13.9606 40.8022 14.4524 41.7198 15.4359C42.6373 16.4193 43.093 17.6307 43.093 19.0699C43.093 20.5092 42.6373 21.7325 41.7198 22.74Z" fill="#1D1D1B"/>
<path d="M59.6683 9.66699C56.8978 9.66699 54.601 10.5845 52.79 12.4195C50.9969 14.2126 50.1034 16.4254 50.1034 19.07C50.1034 21.7146 50.9969 23.9634 52.79 25.7504C54.601 27.5615 56.8918 28.467 59.6683 28.467C62.4448 28.467 64.7356 27.5615 66.5467 25.7504C68.3337 23.9634 69.2332 21.7326 69.2332 19.07C69.2332 16.4074 68.3397 14.2126 66.5467 12.4195C64.7356 10.5845 62.4388 9.66699 59.6683 9.66699ZM63.1704 22.7041C62.211 23.6875 61.0416 24.1793 59.6683 24.1793C58.295 24.1793 57.0717 23.6875 56.1302 22.7041C55.1887 21.7026 54.7209 20.4912 54.7209 19.07C54.7209 17.6487 55.1887 16.4254 56.1302 15.4659C57.0657 14.4824 58.2471 13.9907 59.6683 13.9907C61.0896 13.9907 62.211 14.4824 63.1704 15.4659C64.1299 16.4674 64.6097 17.6727 64.6097 19.07C64.6097 20.4673 64.1299 21.6786 63.1704 22.7041Z" fill="#1D1D1B"/>
<path d="M86.0663 12.2875C84.4952 10.5604 82.5942 9.70288 80.3694 9.70288C77.8387 9.70288 75.7278 10.5844 74.0487 12.3535C72.3696 14.0985 71.524 16.3174 71.524 19.0039C71.524 21.6905 72.3516 23.9633 74.0127 25.7504C75.6738 27.5434 77.7907 28.4369 80.3694 28.4369C82.6421 28.4369 84.5371 27.6094 86.0663 25.9482V28.0111H90.456V10.1646H86.0663V12.2935V12.2875ZM84.693 22.734C83.7515 23.7354 82.5642 24.2392 81.1249 24.2392C79.6857 24.2392 78.4923 23.7354 77.5568 22.734C76.6153 21.7325 76.1476 20.5091 76.1476 19.0639C76.1476 17.6187 76.6034 16.4313 77.5209 15.4298C78.4564 14.4284 79.6617 13.9246 81.1249 13.9246C82.5882 13.9246 83.7575 14.4284 84.693 15.4298C85.6525 16.4553 86.1323 17.6666 86.1323 19.0639C86.1323 20.4612 85.6525 21.7085 84.693 22.734Z" fill="#1D1D1B"/>
<path d="M139.972 18.2183C139.45 17.9365 138.017 17.3548 135.684 16.4852C134.634 16.1374 134.113 15.5917 134.113 14.8481C134.113 14.4343 134.305 14.0805 134.688 13.7867C135.072 13.4928 135.558 13.3429 136.146 13.3429C137.633 13.3429 138.994 13.9306 140.241 15.112L142.532 12.1315C140.895 10.4285 138.808 9.5769 136.278 9.5769C134.245 9.5769 132.632 10.0806 131.432 11.0821C130.209 12.1076 129.597 13.3969 129.597 14.9441C129.597 17.0429 130.623 18.5781 132.673 19.5616C133.177 19.8255 133.939 20.1373 134.964 20.5091C136.122 20.9469 136.829 21.2167 137.093 21.3307C137.945 21.7264 138.37 22.2362 138.37 22.8718C138.37 23.3756 138.137 23.7894 137.669 24.1192C137.201 24.449 136.613 24.6109 135.918 24.6109C135.024 24.6109 134.131 24.389 133.249 23.9393C132.368 23.4895 131.606 22.8838 130.976 22.1222L128.518 25.0367C130.329 27.3275 132.787 28.4729 135.888 28.4729C138.047 28.4729 139.762 27.9391 141.033 26.8657C142.34 25.7983 143 24.419 143 22.7399C143 20.773 141.999 19.2678 139.99 18.2183H139.972Z" fill="#1D1D1B"/>
<path d="M123.414 10.5545C122.449 10.5545 121.597 10.0508 121.106 9.29517V12.2276C119.618 10.5485 117.807 9.70295 115.667 9.70295C113.154 9.70295 111.049 10.5965 109.346 12.3895C107.667 14.2006 106.821 16.4314 106.821 19.07C106.821 21.7086 107.661 23.9694 109.346 25.7864C111.007 27.5555 113.112 28.437 115.667 28.437C117.915 28.437 119.762 27.5615 121.202 25.8164V28.0112H125.723V9.29517C125.231 10.0508 124.38 10.5545 123.414 10.5545ZM119.96 22.77C119.043 23.7535 117.855 24.2452 116.392 24.2452C114.929 24.2452 113.73 23.7535 112.788 22.77C111.871 21.7685 111.415 20.5332 111.415 19.07C111.415 17.6067 111.871 16.4194 112.788 15.4359C113.724 14.4344 114.929 13.9307 116.392 13.9307C117.855 13.9307 119.043 14.4344 119.96 15.4359C120.878 16.4194 121.334 17.6307 121.334 19.07C121.334 20.5092 120.878 21.7685 119.96 22.77Z" fill="#1D1D1B"/>
<path d="M12.7252 3.11841C5.643 3.11841 0 8.68945 0 15.8796C0 23.0698 5.643 28.6348 12.7252 28.6348C19.8075 28.6348 25.4865 23.0698 25.4865 15.8796C25.4865 8.68945 19.8075 3.11841 12.7252 3.11841ZM12.7252 23.9034C8.2756 23.9034 4.80345 20.6111 4.80345 15.8796C4.80345 11.1481 8.2756 7.81991 12.7252 7.81991C17.1749 7.81991 20.647 11.1481 20.647 15.8796C20.647 20.6111 17.1749 23.9034 12.7252 23.9034Z" fill="#1D1D1B"/>
<path d="M94.7317 18.0445V28.0712H99.3253V17.9066C99.3253 16.2994 99.9489 14.3865 102.923 14.3865H106.252V10.1047H102.917C98.0359 10.1047 94.7317 13.295 94.7317 18.0445Z" fill="#1D1D1B"/>
</svg>
