<svg width="21" height="20" viewBox="0 0 21 20" fill="none" xmlns="http://www.w3.org/2000/svg">
<path d="M20.4222 19.4497C20.2392 19.6242 20.0218 19.7626 19.7826 19.857C19.5433 19.9514 19.2869 20 19.0279 20C18.7689 20 18.5125 19.9514 18.2733 19.857C18.034 19.7626 17.8167 19.6242 17.6336 19.4497L14.1534 16.1353C12.7217 17.008 11.0296 17.5302 9.20334 17.5302C4.12047 17.5302 0 13.6059 0 8.76509C0 3.92426 4.12047 0 9.20334 0C14.2862 0 18.4067 3.92426 18.4067 8.76509C18.4067 10.5043 17.8584 12.1159 16.942 13.4795L20.4222 16.7939C20.6054 16.9683 20.7507 17.1753 20.8498 17.4031C20.949 17.631 21 17.8752 21 18.1218C21 18.3685 20.949 18.6127 20.8498 18.8405C20.7507 19.0684 20.6054 19.2754 20.4222 19.4497ZM9.20334 2.50431C5.57328 2.50431 2.62953 5.30664 2.62953 8.76509C2.62953 12.2235 5.57328 15.0259 9.20334 15.0259C12.8347 15.0259 15.7772 12.2235 15.7772 8.76509C15.7772 5.30664 12.8347 2.50431 9.20334 2.50431Z" fill="#0047AB"/>
</svg>
