<svg display="none" xmlns="http://www.w3.org/2000/svg">

    <symbol id="exit-icon" viewBox="0 0 22 24">
        <path fill-rule="evenodd" clip-rule="evenodd"
            d="M0 4.48484C0 2.28407 1.77842 0.5 3.97222 0.5H10.5364C11.0427 0.5 11.4531 0.911709 11.4531 1.41958C11.4531 1.92745 11.0427 2.33915 10.5364 2.33915H3.97222C2.79095 2.33915 1.83333 3.29981 1.83333 4.48484V19.5152C1.83333 20.7002 2.79095 21.6608 3.97222 21.6608H10.5364C11.0427 21.6608 11.4531 22.0726 11.4531 22.5804C11.4531 23.0883 11.0427 23.5 10.5364 23.5H3.97222C1.77842 23.5 0 21.7159 0 19.5152V4.48484Z" />
        <path fill-rule="evenodd" clip-rule="evenodd"
            d="M15.8979 5.73015L21.7315 11.5823C22.0895 11.9414 22.0895 12.5237 21.7315 12.8828L15.8979 18.7349C15.5399 19.094 14.9595 19.094 14.6015 18.7349C14.2435 18.3758 14.2435 17.7936 14.6015 17.4345L18.8703 13.1521H8.21839C7.71213 13.1521 7.30172 12.7404 7.30172 12.2325C7.30172 11.7247 7.71213 11.313 8.21839 11.313H18.8703L14.6015 7.03062C14.2435 6.67151 14.2435 6.08926 14.6015 5.73015C14.9595 5.37103 15.5399 5.37103 15.8979 5.73015Z" />
    </symbol>

    <symbol id="download-icon" viewBox="0 0 22 20">
        <path fill-rule="evenodd" clip-rule="evenodd"
            d="M3.75631 20.0073C1.68176 20.0073 -7.44821e-08 18.3034 -1.6636e-07 16.2014L-4.41274e-07 9.91215C-4.62477e-07 9.42708 0.388097 9.03386 0.86684 9.03386C1.34558 9.03386 1.73368 9.42708 1.73368 9.91215L1.73368 16.2014C1.73368 17.3333 2.63924 18.2508 3.75631 18.2508L17.9247 18.2508C19.0417 18.2508 19.9473 17.3333 19.9473 16.2014L19.9473 9.91214C19.9473 9.42708 20.3354 9.03386 20.8141 9.03386C21.2929 9.03386 21.681 9.42708 21.681 9.91214L21.681 16.2014C21.681 18.3034 19.9992 20.0073 17.9247 20.0073L3.75631 20.0073Z" />
        <path fill-rule="evenodd" clip-rule="evenodd"
            d="M17.3311 8.23619L11.8145 13.8255C11.476 14.1685 10.9272 14.1685 10.5886 13.8255L5.07209 8.23619C4.73357 7.8932 4.73357 7.3371 5.07209 6.99411C5.41062 6.65112 5.95947 6.65112 6.29799 6.99411L10.3347 11.0841L10.3347 0.87828C10.3347 0.393219 10.7228 -2.99953e-07 11.2016 -2.79026e-07C11.6803 -2.581e-07 12.0684 0.393219 12.0684 0.87828L12.0684 11.0841L16.1052 6.99411C16.4437 6.65112 16.9925 6.65112 17.3311 6.99411C17.6696 7.3371 17.6696 7.8932 17.3311 8.23619Z" />
    </symbol>

    <symbol id="calendar-icon" viewBox="0 0 16 18">
        <path
            d="M2.66667 8.88889C2.66667 8.39797 3.06464 8 3.55556 8H12.4444C12.9354 8 13.3333 8.39797 13.3333 8.88889C13.3333 9.37981 12.9354 9.77778 12.4444 9.77778H3.55556C3.06464 9.77778 2.66667 9.37981 2.66667 8.88889Z" />
        <path
            d="M3.55556 11.5556C3.06464 11.5556 2.66667 11.9535 2.66667 12.4444C2.66667 12.9354 3.06464 13.3333 3.55556 13.3333H9.77778C10.2687 13.3333 10.6667 12.9354 10.6667 12.4444C10.6667 11.9535 10.2687 11.5556 9.77778 11.5556H3.55556Z" />
        <path fill-rule="evenodd" clip-rule="evenodd"
            d="M4.44444 0.888889C4.44444 0.397969 4.04648 0 3.55556 0C3.06464 0 2.66667 0.397969 2.66667 0.888889V1.77778H1.77778C0.797969 1.77778 0 2.57575 0 3.55556V16C0 16.9798 0.797969 17.7778 1.77778 17.7778H14.2222C15.202 17.7778 16 16.9798 16 16V3.55556C16 2.57575 15.202 1.77778 14.2222 1.77778H13.3333V0.888889C13.3333 0.397969 12.9354 0 12.4444 0C11.9535 0 11.5556 0.397969 11.5556 0.888889V1.77778H4.44444V0.888889ZM1.77778 6.22222V16H14.2222V6.22222H1.77778Z" />
    </symbol>


</svg>